<svg width="24" height="24" viewBox="0 0 24 24" fill="none" xmlns="http://www.w3.org/2000/svg">
<path fill-rule="evenodd" clip-rule="evenodd" d="M21.327 22.983H2.697C1.76 22.983 1 22.295 1 21.359V2.693C1 1.758 1.76 1 2.697 1H21.327C22.264 1 23.024 1.758 23.024 2.693V21.359C23.024 22.295 22.264 22.983 21.327 22.983ZM9.863 5.241C8.857 5.241 8.421 5.401 7.764 5.722C7.106 6.042 6.632 6.609 6.387 7.118C6.142 7.628 6.02 8.248 6.02 9.282V10.29H4.002V12.963H6.02V20.995H9.004V12.963H11.722L12.33 10.29H9.004V9.339C9.004 8.715 9.117 8.292 9.345 8.072C9.573 7.852 10.546 7.721 11.07 7.721C11.603 7.721 12.03 7.968 12.568 8.282L13.21 5.86C12.222 5.582 10.894 5.241 9.863 5.241Z" fill="#9CA7E3"/>
</svg>
