<svg width="24" height="24" viewBox="0 0 24 24" fill="none" xmlns="http://www.w3.org/2000/svg">
<path fill-rule="evenodd" clip-rule="evenodd" d="M20.271 22.98H3.707C2.212 22.98 1 21.767 1 20.272V3.708C1 2.213 2.212 1 3.707 1H20.271C21.766 1 22.978 2.213 22.978 3.708V20.272C22.978 21.767 21.766 22.98 20.271 22.98ZM11.989 7.985C10.378 7.985 8.99299 8.939 8.35699 10.311H8.354C8.347 10.325 8.343 10.341 8.336 10.355C8.298 10.44 8.26399 10.527 8.23199 10.615C8.21699 10.656 8.2 10.698 8.186 10.74C8.157 10.829 8.133 10.922 8.109 11.014C8.099 11.057 8.086 11.099 8.076 11.144C8.055 11.241 8.04 11.341 8.027 11.441C8.021 11.481 8.013 11.52 8.008 11.562C7.993 11.703 7.985 11.845 7.985 11.99C7.985 14.202 9.777 15.994 11.989 15.994C14.201 15.994 15.993 14.202 15.993 11.99C15.993 11.845 15.985 11.703 15.97 11.562C15.965 11.52 15.957 11.481 15.951 11.441C15.938 11.341 15.923 11.241 15.902 11.144C15.892 11.099 15.879 11.057 15.869 11.014C15.845 10.922 15.821 10.829 15.792 10.74C15.778 10.698 15.761 10.656 15.746 10.615C15.714 10.527 15.68 10.44 15.642 10.355C15.635 10.341 15.631 10.325 15.624 10.311H15.621C14.985 8.939 13.6 7.985 11.989 7.985ZM19.998 5.069C19.998 4.47 19.513 3.985 18.915 3.985H18.042C17.444 3.985 16.959 4.47 16.959 5.069V5.906C16.959 6.504 17.444 6.989 18.042 6.989H18.915C19.513 6.989 19.998 6.504 19.998 5.906V5.069ZM20.967 10.001H17.699C17.853 10.562 18.041 11.433 18.041 12.043C18.041 15.707 14.963 18.037 11.989 18.037C8.945 18.037 5.942 15.707 5.942 12.043C5.942 11.433 6.157 10.562 6.311 10.001L3.016 9.97V19.885C3.016 20.483 3.501 20.968 4.099 20.968H19.884C20.482 20.968 20.967 20.483 20.967 19.885V10.001Z" fill="white"/>
</svg>
