<svg width="24" height="24" viewBox="0 0 24 24" fill="none" xmlns="http://www.w3.org/2000/svg">
<path fill-rule="evenodd" clip-rule="evenodd" d="M11.989 1C5.92 1 1 5.92 1 11.989C1 16.512 3.734 20.397 7.638 22.084C7.61 21.318 7.63699 20.404 7.83099 19.576C8.04399 18.682 9.252 13.566 9.252 13.566C9.252 13.566 8.899 12.862 8.899 11.821C8.899 10.188 9.847 8.966 11.026 8.966C12.029 8.966 12.514 9.721 12.514 10.623C12.514 11.631 11.871 13.139 11.539 14.536C11.264 15.706 12.128 16.661 13.282 16.661C15.37 16.661 16.776 13.977 16.776 10.796C16.776 8.38 15.15 6.57 12.188 6.57C8.844 6.57 6.757 9.065 6.757 11.852C6.757 12.813 7.04199 13.492 7.48599 14.015C7.68999 14.256 7.71801 14.353 7.64301 14.631C7.59001 14.833 7.471 15.321 7.42 15.516C7.347 15.795 7.119 15.893 6.867 15.791C5.327 15.163 4.608 13.475 4.608 11.578C4.608 8.445 7.251 4.688 12.491 4.688C16.703 4.688 19.474 7.736 19.474 11.005C19.474 15.334 17.068 18.565 13.523 18.565C12.332 18.565 11.211 17.921 10.829 17.192C10.829 17.192 10.187 19.73 10.053 20.222C9.82099 21.06 9.37501 21.897 8.96201 22.556C9.92201 22.831 10.938 22.978 11.989 22.978C18.058 22.978 22.978 18.058 22.978 11.989C22.978 5.92 18.058 1 11.989 1Z" fill="white"/>
</svg>
