<svg width="52" height="52" viewBox="0 0 52 52" fill="none" xmlns="http://www.w3.org/2000/svg">
<rect width="52" height="52" rx="26" fill="#5C6BC0"/>
<path fill-rule="evenodd" clip-rule="evenodd" d="M26 14C26.2519 14 26.4929 14.1071 26.6671 14.2964L31.744 19.8164C32.0964 20.1996 32.0834 20.8073 31.715 21.1737C31.3466 21.5402 30.7623 21.5267 30.4099 21.1436L26.9231 17.3525V37.04C26.9231 37.5702 26.5098 38 26 38C25.4902 38 25.0769 37.5702 25.0769 37.04V17.3525L21.5901 21.1436C21.2377 21.5267 20.6534 21.5402 20.285 21.1737C19.9166 20.8073 19.9036 20.1996 20.256 19.8164L25.3329 14.2964C25.5071 14.1071 25.7481 14 26 14Z" fill="white"/>
</svg>
