<svg width="24" height="24" viewBox="0 0 24 24" fill="none" xmlns="http://www.w3.org/2000/svg">
<path fill-rule="evenodd" clip-rule="evenodd" d="M16.308 2.00117C18.214 1.96717 19.228 2.68017 20.196 3.58717C21.018 3.51517 22.087 3.04317 22.716 2.71417C22.92 2.60017 23.124 2.48517 23.328 2.37017C22.969 3.36817 22.481 4.15017 21.732 4.74317C21.566 4.87517 21.401 5.05217 21.192 5.13617C21.192 5.14017 21.192 5.14417 21.192 5.14817C22.26 5.13717 23.14 4.64317 23.976 4.37417C23.976 4.37817 23.976 4.38217 23.976 4.38717C23.537 5.10417 22.943 5.83217 22.308 6.35317C22.052 6.56317 21.796 6.77117 21.54 6.98017C21.554 8.14217 21.524 9.25017 21.312 10.2262C20.084 15.9002 16.829 19.7512 11.676 21.4022C9.826 21.9942 6.836 22.2372 4.716 21.6962C3.665 21.4282 2.715 21.1262 1.824 20.7252C1.329 20.5032 0.869999 20.2622 0.431999 19.9872C0.287999 19.8982 0.144 19.8072 0 19.7172C0.478 19.7312 1.037 19.8672 1.572 19.7782C2.055 19.6982 2.53 19.7192 2.976 19.6182C4.089 19.3682 5.077 19.0362 5.928 18.5252C6.34 18.2762 6.967 17.9852 7.26 17.6272C6.707 17.6372 6.206 17.5062 5.796 17.3572C4.205 16.7792 3.278 15.7182 2.676 14.1232C3.158 14.1772 4.547 14.3072 4.872 14.0242C4.265 13.9902 3.681 13.6292 3.264 13.3612C1.984 12.5382 0.939998 11.1582 0.947998 9.03417C1.116 9.11517 1.284 9.19817 1.452 9.27917C1.773 9.41917 2.1 9.49317 2.484 9.57417C2.646 9.60817 2.97 9.70617 3.156 9.63617C3.148 9.63617 3.14 9.63617 3.132 9.63617C2.884 9.33917 2.481 9.14217 2.232 8.82417C1.411 7.77617 0.640998 6.16117 1.128 4.23917C1.251 3.75117 1.447 3.32017 1.656 2.92317C1.664 2.92717 1.672 2.93117 1.68 2.93617C1.775 3.14217 1.989 3.29317 2.124 3.46417C2.543 3.99817 3.061 4.47917 3.588 4.90217C5.384 6.34617 7.002 7.23317 9.6 7.89017C10.259 8.05717 11.021 8.18417 11.808 8.18517C11.587 7.52317 11.658 6.45317 11.832 5.81217C12.27 4.20217 13.221 3.04117 14.616 2.41917C14.95 2.27017 15.32 2.16217 15.708 2.07517C15.908 2.05017 16.108 2.02617 16.308 2.00117Z" fill="white"/>
</svg>
